<svg width="45" height="57" viewBox="0 0 45 57" fill="none" xmlns="http://www.w3.org/2000/svg">
<path d="M20.5929 14.213V0.5H28.9133V42.7272C24.3622 43.5749 20.9754 43.9132 17.3093 43.9132C11.686 43.913 7.49538 42.6409 4.7154 40.2302C1.94807 37.8306 0.5 34.2338 0.5 29.404C0.5 24.7663 2.03359 20.9837 4.71483 18.3606C7.39713 15.7365 11.273 14.229 16.0379 14.229C17.5168 14.229 18.6232 14.3466 19.9668 14.6969L20.5929 14.8601V14.213ZM20.5929 21.7157V21.3552L20.251 21.2413C19.1029 20.8587 18.1404 20.7321 16.9459 20.7321C14.4811 20.7321 12.4746 21.4934 11.0882 22.9787C9.70624 24.4592 9.00163 26.5931 9.00163 29.2205C9.00163 31.785 9.67476 33.848 11.0399 35.2709C12.4083 36.697 14.4011 37.4066 16.8858 37.4066C17.9409 37.4066 18.8112 37.3439 20.1602 37.1607L20.5929 37.1019V36.6652V21.7157Z" fill="black"/>
<path d="M20.5929 14.213V0.5H28.9133V42.7272C24.3622 43.5749 20.9754 43.9132 17.3093 43.9132C11.686 43.913 7.49538 42.6409 4.7154 40.2302C1.94807 37.8306 0.5 34.2338 0.5 29.404C0.5 24.7663 2.03359 20.9837 4.71483 18.3606C7.39713 15.7365 11.273 14.229 16.0379 14.229C17.5168 14.229 18.6232 14.3466 19.9668 14.6969L20.5929 14.8601V14.213ZM20.5929 21.7157V21.3552L20.251 21.2413C19.1029 20.8587 18.1404 20.7321 16.9459 20.7321C14.4811 20.7321 12.4746 21.4934 11.0882 22.9787C9.70624 24.4592 9.00163 26.5931 9.00163 29.2205C9.00163 31.785 9.67476 33.848 11.0399 35.2709C12.4083 36.697 14.4011 37.4066 16.8858 37.4066C17.9409 37.4066 18.8112 37.3439 20.1602 37.1607L20.5929 37.1019V36.6652V21.7157Z" stroke="black"/>
<path d="M20.5929 14.213V0.5H28.9133V42.7272C24.3622 43.5749 20.9754 43.9132 17.3093 43.9132C11.686 43.913 7.49538 42.6409 4.7154 40.2302C1.94807 37.8306 0.5 34.2338 0.5 29.404C0.5 24.7663 2.03359 20.9837 4.71483 18.3606C7.39713 15.7365 11.273 14.229 16.0379 14.229C17.5168 14.229 18.6232 14.3466 19.9668 14.6969L20.5929 14.8601V14.213ZM20.5929 21.7157V21.3552L20.251 21.2413C19.1029 20.8587 18.1404 20.7321 16.9459 20.7321C14.4811 20.7321 12.4746 21.4934 11.0882 22.9787C9.70624 24.4592 9.00163 26.5931 9.00163 29.2205C9.00163 31.785 9.67476 33.848 11.0399 35.2709C12.4083 36.697 14.4011 37.4066 16.8858 37.4066C17.9409 37.4066 18.8112 37.3439 20.1602 37.1607L20.5929 37.1019V36.6652V21.7157Z" stroke="black" stroke-opacity="0.2"/>
<path d="M35.4197 32.7915V14.893H43.7396V35.9991C43.7396 43.4352 43.1907 46.8969 41.6188 49.8664L41.6187 49.8664L41.6153 49.8731C40.1894 52.6682 38.3278 54.4631 34.4288 56.4433L26.9346 52.88C30.483 51.0964 32.3751 49.405 33.612 46.8721C35.0022 44.0911 35.4197 40.8905 35.4197 32.7915ZM35.4192 0.549438H43.7396V9.11208H35.4192V0.549438Z" fill="black"/>
<path d="M35.4197 32.7915V14.893H43.7396V35.9991C43.7396 43.4352 43.1907 46.8969 41.6188 49.8664L41.6187 49.8664L41.6153 49.8731C40.1894 52.6682 38.3278 54.4631 34.4288 56.4433L26.9346 52.88C30.483 51.0964 32.3751 49.405 33.612 46.8721C35.0022 44.0911 35.4197 40.8905 35.4197 32.7915ZM35.4192 0.549438H43.7396V9.11208H35.4192V0.549438Z" stroke="black"/>
<path d="M35.4197 32.7915V14.893H43.7396V35.9991C43.7396 43.4352 43.1907 46.8969 41.6188 49.8664L41.6187 49.8664L41.6153 49.8731C40.1894 52.6682 38.3278 54.4631 34.4288 56.4433L26.9346 52.88C30.483 51.0964 32.3751 49.405 33.612 46.8721C35.0022 44.0911 35.4197 40.8905 35.4197 32.7915ZM35.4192 0.549438H43.7396V9.11208H35.4192V0.549438Z" stroke="black" stroke-opacity="0.2"/>
</svg>
