<svg width="51" height="37" viewBox="0 0 51 37" fill="none" xmlns="http://www.w3.org/2000/svg">
<path d="M50.5155 13.9847C50.3625 13.8815 49.0875 12.8752 46.3335 12.8752C45.6195 12.8752 44.9055 12.9526 44.1915 13.0816C43.656 9.46932 40.6725 7.63738 40.545 7.55997L39.8055 7.12134L39.3465 7.81799C38.7345 8.74686 38.25 9.80474 38.046 10.8884C37.536 12.9526 37.842 14.9135 38.8875 16.5907C37.638 17.3131 35.598 17.4937 35.1645 17.4937H1.581C0.714 17.4937 0 18.2162 0 19.1192C0 22.0865 0.459 25.0537 1.479 27.8403C2.6265 30.9107 4.3605 33.1813 6.579 34.5746C9.078 36.1227 13.1835 37 17.85 37C19.8645 37 21.9555 36.8194 24.021 36.4324C26.877 35.9163 29.631 34.91 32.1555 33.4393C34.2463 32.2296 36.1176 30.6677 37.689 28.8208C40.3665 25.802 41.9475 22.3703 43.095 19.4031H43.5795C46.4865 19.4031 48.297 18.2162 49.2915 17.2099C49.9545 16.5907 50.439 15.8424 50.796 14.9651L51 14.3459L50.5155 13.9847ZM4.7175 16.5391H9.2055C9.4095 16.5391 9.6135 16.3584 9.6135 16.1262V12.0495C9.6135 11.8431 9.435 11.6367 9.2055 11.6367H4.7175C4.488 11.6367 4.3095 11.8173 4.3095 12.0495V16.1262C4.335 16.3584 4.488 16.5391 4.7175 16.5391ZM10.914 16.5391H15.402C15.606 16.5391 15.81 16.3584 15.81 16.1262V12.0495C15.81 11.8431 15.6315 11.6367 15.402 11.6367H10.914C10.6845 11.6367 10.506 11.8173 10.506 12.0495V16.1262C10.5315 16.3584 10.6845 16.5391 10.914 16.5391ZM17.2125 16.5391H21.675C21.93 16.5391 22.1085 16.3584 22.1085 16.1262V12.0495C22.1085 11.8431 21.9555 11.6367 21.675 11.6367H17.2125C17.0085 11.6367 16.83 11.8173 16.83 12.0495V16.1262C16.83 16.3584 16.983 16.5391 17.2125 16.5391ZM23.4345 16.5391H27.948C28.152 16.5391 28.3305 16.3584 28.3305 16.1262V12.0495C28.3305 11.8431 28.1775 11.6367 27.948 11.6367H23.4345C23.2305 11.6367 23.052 11.8173 23.052 12.0495V16.1262C23.052 16.3584 23.2305 16.5391 23.4345 16.5391ZM10.914 10.7594H15.402C15.606 10.7594 15.81 10.5272 15.81 10.295V6.24407C15.81 6.01186 15.6315 5.83124 15.402 5.83124H10.914C10.6845 5.83124 10.506 5.98605 10.506 6.24407V10.295C10.5315 10.5272 10.6845 10.7594 10.914 10.7594ZM17.2125 10.7594H21.675C21.93 10.7594 22.1085 10.5272 22.1085 10.295V6.24407C22.1085 6.01186 21.9555 5.83124 21.675 5.83124H17.2125C17.0085 5.83124 16.83 5.98605 16.83 6.24407V10.295C16.83 10.5272 16.983 10.7594 17.2125 10.7594ZM23.4345 10.7594H27.948C28.152 10.7594 28.3305 10.5272 28.3305 10.295V6.24407C28.3305 6.01186 28.152 5.83124 27.948 5.83124H23.4345C23.2305 5.83124 23.052 5.98605 23.052 6.24407V10.295C23.052 10.5272 23.2305 10.7594 23.4345 10.7594ZM23.4345 4.87657H27.948C28.152 4.87657 28.3305 4.69596 28.3305 4.46374V0.438633C28.3305 0.180614 28.152 0 27.948 0H23.4345C23.2305 0 23.052 0.154812 23.052 0.438633V4.46374C23.052 4.67015 23.2305 4.87657 23.4345 4.87657ZM29.7075 16.5391H34.1955C34.425 16.5391 34.6035 16.3584 34.6035 16.1262V12.0495C34.6035 11.8431 34.425 11.6367 34.1955 11.6367H29.7075C29.5035 11.6367 29.325 11.8173 29.325 12.0495V16.1262C29.325 16.3584 29.5035 16.5391 29.7075 16.5391Z" fill="black"/>
</svg>
