<svg width="52" height="52" viewBox="0 0 52 52" fill="none" xmlns="http://www.w3.org/2000/svg">
<path d="M51.0186 23.6829L28.3141 0.97836C28.0032 0.66734 27.6341 0.420617 27.2279 0.252286C26.8216 0.0839549 26.3862 -0.00268555 25.9464 -0.00268555C25.5067 -0.00268555 25.0713 0.0839549 24.665 0.252286C24.2588 0.420617 23.8897 0.66734 23.5788 0.97836L18.3041 6.25311L22.2723 10.2214C23.1825 9.7851 24.2056 9.64208 25.2005 9.81205C26.1954 9.98202 27.113 10.4566 27.8267 11.1703C28.5403 11.884 29.0149 12.8016 29.1849 13.7965C29.3549 14.7913 29.2118 15.8145 28.7756 16.7246L35.2756 23.2246C36.3133 22.7289 37.4928 22.6161 38.6057 22.906C39.7186 23.1959 40.6931 23.8699 41.3571 24.8089C42.0211 25.7478 42.3318 26.8913 42.2342 28.0372C42.1366 29.183 41.6371 30.2575 40.8239 31.0707C40.0107 31.8839 38.9362 32.3834 37.7904 32.481C36.6445 32.5785 35.501 32.2679 34.5621 31.6039C33.6231 30.9399 32.9491 29.9653 32.6592 28.8525C32.3693 27.7396 32.4822 26.5601 32.9778 25.5224L26.4778 19.0224C26.3213 19.0948 26.1619 19.1609 26.0001 19.2206V32.7764C27.0843 33.1597 27.9981 33.914 28.58 34.9059C29.1619 35.8978 29.3743 37.0635 29.1799 38.1969C28.9854 39.3304 28.3965 40.3585 27.5173 41.0998C26.638 41.841 25.5251 42.2476 24.3751 42.2476C23.2251 42.2476 22.1121 41.841 21.2329 41.0998C20.3536 40.3585 19.7647 39.3304 19.5703 38.1969C19.3758 37.0635 19.5883 35.8978 20.1702 34.9059C20.752 33.914 21.6659 33.1597 22.7501 32.7764V19.2206C22.1053 18.9929 21.5157 18.6321 21.0194 18.1617C20.5232 17.6912 20.1315 17.1217 19.8697 16.49C19.608 15.8583 19.482 15.1786 19.5001 14.495C19.5182 13.8115 19.6798 13.1394 19.9746 12.5224L16.0063 8.55411L0.981574 23.5789C0.670067 23.8898 0.422932 24.2591 0.254313 24.6656C0.0856944 25.0722 -0.00109863 25.508 -0.00109863 25.9481C-0.00109863 26.3882 0.0856944 26.824 0.254313 27.2306C0.422932 27.6371 0.670067 28.0064 0.981574 28.3174L23.6861 51.0219C23.9969 51.3329 24.366 51.5796 24.7723 51.7479C25.1785 51.9163 25.614 52.0029 26.0537 52.0029C26.4934 52.0029 26.9289 51.9163 27.3351 51.7479C27.7414 51.5796 28.1105 51.3329 28.4213 51.0219L51.0186 28.4246C51.3301 28.1137 51.5772 27.7444 51.7458 27.3378C51.9145 26.9313 52.0012 26.4955 52.0012 26.0554C52.0012 25.6152 51.9145 25.1794 51.7458 24.7729C51.5772 24.3663 51.3301 23.9938 51.0186 23.6829Z" fill="black"/>
</svg>
