<svg width="52" height="52" viewBox="0 0 52 52" fill="none" xmlns="http://www.w3.org/2000/svg">
<path d="M15.2187 5.00505C16.8466 5.55437 18.3947 6.31642 19.8229 7.27139C21.8412 6.75479 23.9167 6.49562 26 6.50005C28.1515 6.50005 30.2272 6.76872 32.1729 7.26922C33.6005 6.31518 35.1479 5.55387 36.7749 5.00505C38.285 4.49155 40.4366 3.65955 41.7149 5.07439C42.5816 6.03639 42.7982 7.64839 42.952 8.87905C43.1254 10.2527 43.1665 12.0424 42.7115 13.8191C44.4514 16.0659 45.5 18.7461 45.5 21.6667C45.5 26.0911 43.1037 29.9326 39.5569 32.5932C37.8491 33.8562 35.9562 34.8473 33.9452 35.5312C34.4089 36.5929 34.6667 37.7672 34.6667 39.0001V45.5001C34.6667 46.0747 34.4384 46.6258 34.0321 47.0321C33.6258 47.4384 33.0747 47.6667 32.5 47.6667H19.5C18.9254 47.6667 18.3743 47.4384 17.968 47.0321C17.5617 46.6258 17.3334 46.0747 17.3334 45.5001V43.3529C15.2642 43.6064 13.5287 43.3811 12.0532 42.7549C10.5106 42.1006 9.43588 41.0866 8.62772 40.1159C7.86072 39.1972 7.02438 37.1259 5.81538 36.7229C5.54536 36.633 5.2957 36.4908 5.08064 36.3044C4.86558 36.118 4.68934 35.891 4.56199 35.6365C4.30478 35.1225 4.2623 34.5274 4.44388 33.9821C4.62547 33.4367 5.01625 32.9859 5.53025 32.7287C6.04426 32.4715 6.63939 32.429 7.18472 32.6106C8.62772 33.0916 9.56805 34.1316 10.2115 34.9679C11.2515 36.3112 12.0965 38.0662 13.7432 38.7661C14.4214 39.0542 15.4159 39.2427 16.9715 39.0304L17.3334 38.9567C17.3384 37.7777 17.5839 36.6121 18.0549 35.5312C16.0439 34.8473 14.151 33.8562 12.4432 32.5932C8.89638 29.9326 6.50005 26.0932 6.50005 21.6667C6.50005 18.7504 7.54655 16.0724 9.28205 13.8277C8.82705 12.0511 8.86605 10.2571 9.03938 8.88122L9.05022 8.79889C9.20838 7.53789 9.39255 6.05372 10.2765 5.07439C11.5549 3.65955 13.7085 4.49372 15.2165 5.00722L15.2187 5.00505Z" fill="black"/>
</svg>
