<svg width="50" height="68" viewBox="0 0 50 68" fill="none" xmlns="http://www.w3.org/2000/svg">
<path d="M16.1072 52.525C16.1072 52.525 13.5144 54.0353 17.948 54.5416C23.32 55.1601 26.0674 55.0733 31.9817 53.9463C31.9817 53.9463 33.5344 54.9292 35.7099 55.7787C22.4388 61.4621 5.67878 55.4376 16.1051 52.525H16.1072ZM14.4824 45.1109C14.4824 45.1109 11.5698 47.261 16.0055 47.7122C21.7567 48.3074 26.2771 48.3646 34.1212 46.8543C34.1212 46.8543 35.2037 47.9473 36.9152 48.551C20.8734 53.2388 2.99701 48.9154 14.4824 45.1109ZM28.1518 32.524C31.4161 36.2861 27.2897 39.6732 27.2897 39.6732C27.2897 39.6732 35.5871 35.3794 31.7805 30.0201C28.2196 25.0104 25.4828 22.5298 40.2643 13.9549C40.2643 13.9549 17.0625 19.7485 28.1497 32.5261L28.1518 32.524ZM45.6956 58.0198C45.6956 58.0198 47.6169 59.5959 43.5879 60.8224C35.9302 63.1377 11.7138 63.8325 4.98397 60.9092C2.56911 59.8606 7.10228 58.3948 8.52577 58.0961C10.0149 57.7656 10.8644 57.8334 10.8644 57.8334C8.17202 55.9354 -6.52264 61.551 3.39737 63.161C30.4608 67.5522 52.722 61.1867 45.6956 58.0198ZM17.3527 37.4215C17.3527 37.4215 5.03058 40.3447 12.9827 41.4039C16.3487 41.8551 23.0467 41.7576 29.2915 41.2281C34.386 40.7959 39.5081 39.8808 39.5081 39.8808C39.5081 39.8808 37.7096 40.6519 36.4069 41.5479C23.8941 44.8355 -0.275768 43.3019 6.68497 39.938C12.5654 37.1016 17.3527 37.4215 17.3527 37.4215ZM39.4509 49.7775C52.1607 43.1578 46.2803 36.8135 42.1877 37.6757C41.1815 37.8727 40.7303 38.0633 40.7303 38.0633C40.7303 38.0633 41.0947 37.4766 41.8128 37.2245C49.9322 34.3669 56.177 45.6405 39.1967 50.1101C39.1967 50.0995 39.3979 49.9322 39.4509 49.7775ZM31.7826 0.107605C31.7826 0.107605 38.8238 7.14672 25.0972 17.9797C14.099 26.6732 22.5913 31.6279 25.0972 37.288C18.6767 31.4945 13.9656 26.4 17.1218 21.655C21.7652 14.6709 34.619 11.2944 31.7826 0.107605ZM18.5983 67.6835C30.8018 68.4546 49.5446 67.2429 50 61.4727C50 61.4727 49.1378 63.6566 39.9021 65.3979C29.4885 67.3615 16.6346 67.1285 9.01087 65.8724C9.01087 65.8724 10.5784 67.1624 18.5962 67.6835H18.5983Z" fill="black"/>
</svg>
