<svg width="50" height="57" viewBox="0 0 50 57" fill="none" xmlns="http://www.w3.org/2000/svg">
<path d="M49.0848 22.3213C48.2254 18.8813 46.5959 16.2873 43.125 16.2873H38.6495V21.5643C38.6495 25.6612 35.1674 29.1123 31.1942 29.1123H19.2745C16.0156 29.1123 13.3147 31.8955 13.3147 35.1574V46.4906C13.3147 49.7192 16.1272 51.6117 19.2745 52.5358C23.0468 53.6379 26.6741 53.8383 31.1942 52.5358C34.1964 51.6674 37.154 49.9196 37.154 46.4906V41.9596H25.2455V40.4455H43.125C46.5959 40.4455 47.8794 38.0297 49.0848 34.4115C50.3348 30.6821 50.279 27.0973 49.0848 22.3213ZM31.9419 44.9766C33.1808 44.9766 34.1852 45.9897 34.1852 47.2365C34.1852 48.4945 33.1808 49.5076 31.9419 49.5076C30.7142 49.5076 29.6986 48.4834 29.6986 47.2365C29.7098 45.9785 30.7142 44.9766 31.9419 44.9766ZM18.7276 27.6205H30.6473C33.962 27.6205 36.6071 24.893 36.6071 21.5754V10.2311C36.6071 7.00256 33.8839 4.58674 30.6473 4.04123C26.6517 3.3844 22.3102 3.4178 18.7276 4.05237C13.683 4.94299 12.7678 6.80217 12.7678 10.2422V14.7733H24.6986V16.2873H8.29237C4.82139 16.2873 1.78568 18.3692 0.837015 22.3213C-0.256735 26.8524 -0.301378 29.6801 0.837015 34.4115C1.68523 37.9295 3.70532 40.4455 7.1763 40.4455H11.2723V35.0127C11.2723 31.0828 14.6763 27.6205 18.7276 27.6205ZM17.9799 11.7451C16.741 11.7451 15.7366 10.7321 15.7366 9.48518C15.7477 8.22717 16.741 7.21408 17.9799 7.21408C19.2076 7.21408 20.2232 8.2383 20.2232 9.48518C20.2232 10.7321 19.2187 11.7451 17.9799 11.7451Z" fill="black"/>
<path d="M48.5997 22.4425L48.5997 22.4426C49.7785 27.1569 49.8216 30.6397 48.6107 34.2526L48.6104 34.2535C48.0083 36.0609 47.4107 37.4849 46.5749 38.4599C45.7679 39.4014 44.7198 39.9455 43.125 39.9455H25.2455H24.7455V40.4455V41.9596V42.4596H25.2455H36.654V46.4906C36.654 48.0392 35.9943 49.2026 34.9709 50.0969C33.9333 51.0037 32.5213 51.6314 31.0557 52.0553C26.6342 53.3295 23.104 53.1336 19.4154 52.056C16.3082 51.1438 13.8147 49.3584 13.8147 46.4906V35.1574C13.8147 32.1626 16.3007 29.6123 19.2745 29.6123H31.1942C35.4462 29.6123 39.1495 25.9346 39.1495 21.5643V16.7873H43.125C44.7157 16.7873 45.8544 17.3732 46.7088 18.3445C47.5811 19.3362 48.1783 20.7555 48.5997 22.4425ZM29.1986 47.2321V47.2365C29.1986 48.7543 30.4329 50.0076 31.9419 50.0076C33.4622 50.0076 34.6852 48.7654 34.6852 47.2365C34.6852 45.7172 33.4606 44.4766 31.9419 44.4766C30.4337 44.4766 29.2122 45.7059 29.1986 47.2321ZM18.8146 4.54475L18.8148 4.5447C22.3392 3.92044 26.6234 3.88656 30.5652 4.53445C33.6402 5.05313 36.1071 7.31966 36.1071 10.2311V21.5754C36.1071 24.626 33.6768 27.1205 30.6473 27.1205H18.7276C14.4004 27.1205 10.7723 30.8065 10.7723 35.0127V39.9455H7.1763C5.57551 39.9455 4.33158 39.3709 3.38064 38.3982C2.41843 37.4141 1.73383 35.9979 1.32309 34.2943C0.759639 31.9525 0.494537 30.1046 0.499959 28.2928C0.505382 26.4808 0.781412 24.6825 1.32306 22.4386L1.3232 22.438C2.2161 18.7182 5.04474 16.7873 8.29237 16.7873H24.6986H25.1986V16.2873V14.7733V14.2733H24.6986H13.2678V10.2422C13.2678 8.54866 13.4983 7.37993 14.2362 6.51599C14.9803 5.64483 16.326 4.9841 18.8146 4.54475ZM15.2366 9.48074L15.2366 9.48074V9.48518C15.2366 11.0045 16.4612 12.2451 17.9799 12.2451C19.4985 12.2451 20.7232 11.0045 20.7232 9.48518C20.7232 7.96741 19.4889 6.71408 17.9799 6.71408C16.4557 6.71408 15.2501 7.95941 15.2366 9.48074Z" stroke="black" stroke-opacity="0.2"/>
</svg>
