<svg width="51" height="51" viewBox="0 0 51 51" fill="none" xmlns="http://www.w3.org/2000/svg">
<path d="M50.3476 22.7502L40.2964 5.35711C39.4251 3.84836 37.2853 2.60736 35.5364 2.60736H15.4551C13.7126 2.60736 11.5643 3.84836 10.6951 5.35711L0.650264 22.7502C-0.220986 24.259 -0.220986 26.7304 0.650264 28.2412L10.6909 45.6429C11.5621 47.1516 13.702 48.3926 15.4509 48.3926H35.5428C37.2853 48.3926 39.423 47.1516 40.3028 45.6429L50.3455 28.2391C51.2168 26.7304 51.2168 24.259 50.3455 22.7502H50.3476ZM23.324 12.2294C23.324 11.0882 24.2548 10.1575 25.3938 10.1575C26.5328 10.1575 27.4656 11.0882 27.4656 12.2294V24.599C27.4319 25.125 27.1992 25.6184 26.8147 25.979C26.4303 26.3396 25.923 26.5403 25.3959 26.5403C24.8688 26.5403 24.3615 26.3396 23.977 25.979C23.5926 25.6184 23.3599 25.125 23.3261 24.599L23.324 12.2294ZM25.3938 38.6431C21.671 38.6381 18.1022 37.1566 15.4702 34.5238C12.8381 31.891 11.3578 28.3218 11.3539 24.599C11.3592 22.4094 11.8741 20.2511 12.8578 18.2948C13.8414 16.3386 15.2669 14.6381 17.0213 13.328C17.2156 13.1832 17.4366 13.0783 17.6716 13.0191C17.9065 12.96 18.1509 12.9478 18.3906 12.9834C18.6303 13.0189 18.8606 13.1014 19.0683 13.2262C19.276 13.351 19.4571 13.5156 19.601 13.7105C19.7457 13.9045 19.8507 14.1251 19.9099 14.3597C19.9692 14.5943 19.9817 14.8383 19.9465 15.0778C19.9114 15.3172 19.8294 15.5473 19.7052 15.755C19.581 15.9627 19.4171 16.1439 19.2228 16.2881C17.094 17.9536 15.7002 20.385 15.3389 23.0636C14.9775 25.7422 15.6772 28.456 17.2885 30.626C18.8999 32.7961 21.2955 34.2506 23.9641 34.6792C26.6328 35.1079 29.3634 34.4767 31.5733 32.9205C32.8705 31.9553 33.9241 30.7002 34.6498 29.2553C35.3756 27.8104 35.7534 26.2159 35.7531 24.599C35.7484 22.976 35.3643 21.3766 34.6315 19.9285C33.8988 18.4803 32.8377 17.2235 31.5329 16.2584C31.1401 15.9672 30.8787 15.5323 30.8058 15.0488C30.7329 14.5653 30.8545 14.0726 31.144 13.6786C31.4352 13.2858 31.8701 13.0244 32.3536 12.9515C32.8371 12.8786 33.3297 13.0002 33.7238 13.2897C35.4924 14.5981 36.9301 16.3025 37.9216 18.2664C38.9131 20.2302 39.431 22.399 39.4336 24.599C39.4308 28.3223 37.9505 31.8923 35.3177 34.5251C32.6849 37.1578 29.1149 38.6382 25.3916 38.641" fill="black"/>
</svg>
